#!OML:ASF H:\Dans Jumps\Project 1\Capture day 1\Session 1\subject.ASF
:FULLY-SPECIFIED
:DEGREES
129
root 0.55957 17.6184 -13.924 6.97421 -1.55936 -0.924313
lowerback -3.0743 -0.311217 -0.231432
upperback 3.43784 -0.465587 1.29359
thorax 5.29367 -0.26771 1.43444
lowerneck -12.7414 0.919203 -1.77435
upperneck 33.926 1.48946 0.978436
head 13.5496 0.545244 0.923046
rclavicle -2.13694e-015 1.82882e-014
rhumerus -22.9127 -13.7925 -81.4867
rradius 25.8018
rwrist 31.8643
rhand -17.8442 -27.0848
rfingers 7.12502
rthumb 8.42073 -56.897
lclavicle -2.13694e-015 1.82882e-014
lhumerus -20.1949 -3.94727 88.9766
lradius 20.4799
lwrist 0.992559
lhand -24.0169 -2.52741
lfingers 7.12502
lthumb 2.46103 27.4381
rfemur -14.542 -2.77152 19.3136
rtibia 22.9988
rfoot -14.1871 -4.05987
rtoes 12.2643
lfemur -12.6865 6.00048 -18.8552
ltibia 19.0884
lfoot -10.8214 7.04433
ltoes 5.99997
130
root 0.560062 17.6184 -13.9255 6.98156 -1.5603 -0.921373
lowerback -3.05862 -0.310924 -0.231199
upperback 3.4388 -0.465063 1.29196
thorax 5.28568 -0.267381 1.43272
lowerneck -12.7422 0.918501 -1.77652
upperneck 33.9234 1.4881 0.981061
head 13.5486 0.544744 0.924239
rclavicle -3.77691e-015 -5.96354e-016
rhumerus -22.8681 -13.6343 -81.5797
rradius 25.902
rwrist 31.731
rhand -17.8522 -27.079
rfingers 7.12502
rthumb 8.41296 -56.8915
lclavicle -3.77691e-015 -5.96354e-016
lhumerus -20.1718 -4.14248 89.0541
lradius 20.628
lwrist 1.17736
lhand -24.0266 -2.51944
lfingers 7.12502
lthumb 2.45169 27.4462
rfemur -14.5611 -2.77022 19.3089
rtibia 23.0081
rfoot -14.188 -4.05878
rtoes 12.2665
lfemur -12.7041 6.00416 -18.8615
ltibia 19.0951
lfoot -10.8205 7.04016
ltoes 5.98781
131
root 0.56057 17.6184 -13.9271 6.98937 -1.55943 -0.919885
lowerback -3.04113 -0.312479 -0.230661
upperback 3.4411 -0.467121 1.29219
thorax 5.27814 -0.268367 1.43254
lowerneck -12.7412 0.918837 -1.78263
upperneck 33.9152 1.48875 0.985175
head 13.5447 0.544863 0.926927
rclavicle 1.11816e-014 1.78906e-015
rhumerus -22.8195 -13.4656 -81.6738
rradius 26.0034
rwrist 31.592
rhand -17.8613 -27.0773
rfingers 7.12502
rthumb 8.40418 -56.89
lclavicle 1.11816e-014 1.78906e-015
lhumerus -20.1462 -4.33567 89.1327
lradius 20.7794
lwrist 1.3641
lhand -24.038 -2.4926
lfingers 7.12502
lthumb 2.44067 27.4732
rfemur -14.581 -2.76751 19.306
rtibia 23.0176
rfoot -14.1888 -4.06201
rtoes 12.2576
lfemur -12.7245 6.00471 -18.8659
ltibia 19.1057
lfoot -10.8198 7.03651
ltoes 5.98906
132
root 0.561121 17.6183 -13.929 6.99921 -1.56106 -0.920988
lowerback -3.02327 -0.313819 -0.227274
upperback 3.44338 -0.46909 1.29329
thorax 5.27035 -0.269218 1.43169
lowerneck -12.7406 0.920497 -1.78637
upperneck 33.9053 1.49159 0.986601
head 13.5401 0.545894 0.928437
rclavicle 1.68967e-015 7.55382e-015
rhumerus -22.7678 -13.2964 -81.7674
rradius 26.1016
rwrist 31.4559
rhand -17.8709 -27.0742
rfingers 7.12502
rthumb 8.39488 -56.8874
lclavicle 1.68967e-015 7.55382e-015
lhumerus -20.1166 -4.52379 89.2107
lradius 20.9264
lwrist 1.54695
lhand -24.0427 -2.45712
lfingers 7.12502
lthumb 2.43609 27.5087
rfemur -14.6042 -2.76217 19.3058
rtibia 23.0274
rfoot -14.1868 -4.06561
rtoes 12.2417
lfemur -12.7499 6.00698 -18.8679
ltibia 19.1213
lfoot -10.8204 7.03327
ltoes 6.0019
133
root 0.56173 17.6181 -13.9309 7.00929 -1.56381 -0.92159
lowerback -3.00222 -0.315547 -0.224411
upperback 3.44622 -0.471563 1.29495
thorax 5.26135 -0.270349 1.43169
lowerneck -12.739 0.922438 -1.79199
upperneck 33.8918 1.49542 0.987694
head 13.5337 0.547106 0.930242
rclavicle 3.67752e-015 -3.97569e-016
rhumerus -22.7129 -13.1221 -81.8605
rradius 26.1988
rwrist 31.3179
rhand -17.8756 -27.0732
rfingers 7.12502
rthumb 8.39041 -56.8865
lclavicle 3.67752e-015 -3.97569e-016
lhumerus -20.0788 -4.70323 89.2878
lradius 21.0603
lwrist 1.72029
lhand -24.0452 -2.43538
lfingers 7.12502
lthumb 2.43375 27.5305
rfemur -14.6294 -2.75634 19.3047
rtibia 23.0388
rfoot -14.1833 -4.06778
rtoes 12.228
lfemur -12.7777 6.00741 -18.8706
ltibia 19.141
lfoot -10.8226 7.03299
ltoes 6.02325
134
root 0.562322 17.6179 -13.9332 7.02019 -1.56784 -0.922703
lowerback -2.97784 -0.316881 -0.221589
upperback 3.44902 -0.473517 1.29718
thorax 5.2504 -0.27123 1.43235
lowerneck -12.7383 0.923984 -1.79581
upperneck 33.8767 1.49919 0.985848
head 13.5268 0.548144 0.930541
rclavicle 1.02374e-014 1.98785e-016
rhumerus -22.6577 -12.945 -81.9526
rradius 26.2959
rwrist 31.179
rhand -17.8816 -27.0751
rfingers 7.12502
rthumb 8.38464 -56.8886
lclavicle 1.02374e-014 1.98785e-016
lhumerus -20.0363 -4.88159 89.3653
lradius 21.187
lwrist 1.88858
lhand -24.0497 -2.42385
lfingers 7.12502
lthumb 2.42939 27.5421
rfemur -14.6577 -2.74812 19.3042
rtibia 23.0523
rfoot -14.1813 -4.07095
rtoes 12.2116
lfemur -12.8099 6.01042 -18.8732
ltibia 19.1649
lfoot -10.8256 7.03282
ltoes 6.04218
135
root 0.562983 17.6176 -13.9356 7.03058 -1.57384 -0.922372
lowerback -2.94897 -0.316922 -0.218569
upperback 3.45178 -0.473665 1.29809
thorax 5.23677 -0.271169 1.43168
lowerneck -12.7371 0.924997 -1.79898
upperneck 33.8614 1.50204 0.98385
head 13.5198 0.548858 0.930525
rclavicle -1.68967e-015 -1.5704e-014
rhumerus -22.602 -12.7705 -82.0436
rradius 26.3906
rwrist 31.0408
rhand -17.8849 -27.0853
rfingers 7.12502
rthumb 8.38141 -56.899
lclavicle -1.68967e-015 -1.5704e-014
lhumerus -19.9944 -5.06265 89.4426
lradius 21.312
lwrist 2.05563
lhand -24.0593 -2.44036
lfingers 7.12502
lthumb 2.42011 27.5257
rfemur -14.688 -2.74002 19.3017
rtibia 23.0683
rfoot -14.1795 -4.07055
rtoes 12.1992
lfemur -12.8444 6.01401 -18.8778
ltibia 19.1924
lfoot -10.8279 7.03501
ltoes 6.05729
136
root 0.563637 17.6172 -13.9382 7.04078 -1.58195 -0.92191
lowerback -2.91694 -0.315793 -0.215537
upperback 3.45643 -0.472228 1.29853
thorax 5.22327 -0.270322 1.43064
lowerneck -12.7423 0.925431 -1.7994
upperneck 33.8478 1.50423 0.979576
head 13.515 0.549303 0.929113
rclavicle 7.20594e-015 -8.74653e-015
rhumerus -22.5452 -12.5961 -82.134
rradius 26.4883
rwrist 30.906
rhand -17.8829 -27.1021
rfingers 7.12502
rthumb 8.38335 -56.9158
lclavicle 7.20594e-015 -8.74653e-015
lhumerus -19.9475 -5.24484 89.5188
lradius 21.4326
lwrist 2.2197
lhand -24.0735 -2.47584
lfingers 7.12502
lthumb 2.40639 27.4903
rfemur -14.7206 -2.73005 19.2988
rtibia 23.0866
rfoot -14.1789 -4.06956
rtoes 12.1873
lfemur -12.8822 6.01799 -18.8828
ltibia 19.2247
lfoot -10.8308 7.03983
ltoes 6.06669
137
root 0.564341 17.6168 -13.9412 7.04987 -1.59137 -0.924274
lowerback -2.87902 -0.313883 -0.209586
upperback 3.46199 -0.469923 1.29982
thorax 5.20732 -0.268946 1.42893
lowerneck -12.7492 0.926515 -1.79919
upperneck 33.8346 1.50751 0.974544
head 13.5108 0.5502 0.927473
rclavicle 2.5345e-015 -1.45113e-014
rhumerus -22.4879 -12.4211 -82.2229
rradius 26.5862
rwrist 30.7714
rhand -17.883 -27.1228
rfingers 7.12502
rthumb 8.38329 -56.9364
lclavicle 2.5345e-015 -1.45113e-014
lhumerus -19.9051 -5.42866 89.595
lradius 21.5612
lwrist 2.38427
lhand -24.0941 -2.51836
lfingers 7.12502
lthumb 2.38646 27.448
rfemur -14.7544 -2.71972 19.2988
rtibia 23.1071
rfoot -14.1752 -4.06522
rtoes 12.1851
lfemur -12.9228 6.02201 -18.885
ltibia 19.2624
lfoot -10.8331 7.04681
ltoes 6.07313
138
root 0.565055 17.6162 -13.9444 7.05821 -1.60167 -0.928986
lowerback -2.83548 -0.311424 -0.202134
upperback 3.46952 -0.466999 1.30214
thorax 5.1902 -0.267232 1.42752
lowerneck -12.7601 0.928483 -1.79757
upperneck 33.8217 1.51232 0.96801
head 13.5075 0.551737 0.925267
rclavicle -4.62174e-015 0
rhumerus -22.4286 -12.2452 -82.3103
rradius 26.6863
rwrist 30.6381
rhand -17.8843 -27.1358
rfingers 7.12502
rthumb 8.382 -56.9494
lclavicle -4.62174e-015 0
lhumerus -19.8638 -5.61321 89.6706
lradius 21.6952
lwrist 2.55127
lhand -24.1269 -2.58693
lfingers 7.12502
lthumb 2.3548 27.3798
rfemur -14.79 -2.70769 19.3014
rtibia 23.1297
rfoot -14.1713 -4.06132
rtoes 12.1867
lfemur -12.9674 6.02539 -18.8845
ltibia 19.3067
lfoot -10.836 7.05635
ltoes 6.07001
139
root 0.565784 17.6156 -13.9481 7.06558 -1.61121 -0.937146
lowerback -2.78654 -0.309347 -0.192377
upperback 3.47974 -0.464781 1.30618
thorax 5.17283 -0.265829 1.42656
lowerneck -12.7723 0.932023 -1.79591
upperneck 33.8069 1.51972 0.960708
head 13.5037 0.554318 0.923124
rclavicle 1.04362e-015 -8.34896e-015
rhumerus -22.3674 -12.0644 -82.3975
rradius 26.7919
rwrist 30.5009
rhand -17.883 -27.1443
rfingers 7.12502
rthumb 8.38325 -56.9579
lclavicle 1.04362e-015 -8.34896e-015
lhumerus -19.8246 -5.79761 89.7454
lradius 21.8403
lwrist 2.72173
lhand -24.1599 -2.64491
lfingers 7.12502
lthumb 2.32293 27.3222
rfemur -14.8268 -2.6963 19.308
rtibia 23.1545
rfoot -14.1677 -4.05698
rtoes 12.1938
lfemur -13.0157 6.02552 -18.8801
ltibia 19.3582
lfoot -10.8395 7.06978
ltoes 6.06308
140
root 0.56653 17.6148 -13.952 7.07221 -1.62193 -0.947339
lowerback -2.73406 -0.307093 -0.181477
upperback 3.4929 -0.462442 1.31139
thorax 5.15651 -0.264364 1.42619
lowerneck -12.7871 0.936904 -1.7932
upperneck 33.7923 1.52957 0.951284
head 13.5005 0.557818 0.920352
rclavicle -1.09332e-015 -7.55382e-015
rhumerus -22.3029 -11.8818 -82.4833
rradius 26.898
rwrist 30.3629
rhand -17.8849 -27.1499
rfingers 7.12502
rthumb 8.38144 -56.9636
lclavicle -1.09332e-015 -7.55382e-015
lhumerus -19.7872 -5.98021 89.8189
lradius 21.993
lwrist 2.89393
lhand -24.1932 -2.69357
lfingers 7.12502
lthumb 2.2908 27.2739
rfemur -14.8657 -2.68441 19.3168
rtibia 23.1825
rfoot -14.1616 -4.05157
rtoes 12.2104
lfemur -13.0675 6.02538 -18.8735
ltibia 19.4161
lfoot -10.8439 7.08658
ltoes 6.05035
141
root 0.567344 17.614 -13.9563 7.07914 -1.63342 -0.958967
lowerback -2.67687 -0.303793 -0.168573
upperback 3.50835 -0.458781 1.31634
thorax 5.13986 -0.262171 1.42454
lowerneck -12.8024 0.941311 -1.78833
upperneck 33.7762 1.53836 0.941202
head 13.4969 0.561056 0.916773
rclavicle -7.30534e-015 -5.96354e-016
rhumerus -22.2384 -11.7002 -82.568
rradius 27.0083
rwrist 30.226
rhand -17.8836 -27.1508
rfingers 7.12502
rthumb 8.38264 -56.9644
lclavicle -7.30534e-015 -5.96354e-016
lhumerus -19.7495 -6.16486 89.8901
lradius 22.149
lwrist 3.06497
lhand -24.2216 -2.7419
lfingers 7.12502
lthumb 2.26333 27.2258
rfemur -14.908 -2.67355 19.3271
rtibia 23.2135
rfoot -14.1555 -4.0437
rtoes 12.2314
lfemur -13.1233 6.02279 -18.8655
ltibia 19.4798
lfoot -10.8491 7.10711
ltoes 6.04145
